<?xml version="1.0" standalone="no"?>
<!DOCTYPE svg PUBLIC "-//W3C//DTD SVG 20010904//EN"
 "http://www.w3.org/TR/2001/REC-SVG-20010904/DTD/svg10.dtd">
<svg version="1.0" xmlns="http://www.w3.org/2000/svg"
 width="1280.000000pt" height="894.000000pt" viewBox="0 0 1280.000000 894.000000"
 preserveAspectRatio="xMidYMid meet">
<metadata>
Created by potrace 1.15, written by Peter Selinger 2001-2017
</metadata>
<g transform="translate(0.000000,894.000000) scale(0.100000,-0.100000)"
fill="#52ffa5" stroke="none">
<path d="M3787 8918 c-15 -5 -24 -14 -21 -20 4 -6 -2 -8 -16 -3 -17 5 -21 4
-15 -6 6 -9 3 -11 -8 -6 -22 8 -79 -12 -71 -25 4 -6 -2 -8 -16 -3 -17 5 -21 4
-15 -6 6 -9 3 -11 -8 -6 -22 8 -49 -2 -40 -16 4 -6 0 -8 -10 -4 -22 8 -49 -2
-40 -16 4 -6 0 -8 -10 -4 -20 7 -79 -11 -72 -23 3 -4 -2 -11 -11 -14 -24 -9
-31 -7 -14 4 8 5 11 10 5 10 -13 0 -43 -20 -30 -20 13 0 -17 -20 -30 -20 -5 0
-3 5 5 10 21 13 6 12 -24 -1 -14 -7 -23 -17 -19 -22 4 -6 0 -8 -10 -4 -21 8
-49 -2 -41 -14 3 -5 -1 -10 -8 -10 -7 -1 -20 -3 -28 -4 -8 -1 -21 -3 -28 -4
-7 0 -11 -5 -8 -10 7 -10 -22 -24 -34 -16 -11 7 -61 -16 -55 -25 6 -10 -24
-22 -35 -15 -11 7 -80 -26 -75 -36 7 -10 -25 -20 -37 -12 -6 3 -8 2 -5 -4 7
-11 -42 -38 -51 -28 -3 3 1 5 8 5 7 0 11 3 8 6 -6 6 -228 -103 -228 -111 0 -3
9 -1 20 5 11 6 20 8 20 6 0 -3 -23 -17 -51 -32 -28 -14 -48 -20 -44 -14 4 6
-11 2 -34 -9 -23 -12 -41 -24 -41 -27 0 -3 5 -2 10 1 6 3 10 4 10 1 0 -3 -14
-13 -31 -22 -18 -9 -28 -11 -24 -4 4 7 -6 5 -24 -4 -17 -9 -31 -19 -31 -22 0
-3 5 -2 10 1 6 3 10 4 10 1 0 -3 -10 -10 -21 -17 -17 -9 -20 -8 -13 2 8 13
-83 -35 -101 -54 -7 -7 -6 -8 3 -3 6 4 12 5 12 2 0 -3 -10 -10 -21 -17 -16 -8
-20 -8 -14 1 6 9 3 9 -11 2 -26 -14 -62 -45 -44 -37 21 9 -20 -24 -45 -36 -15
-8 -13 -4 5 11 l25 22 -31 -17 c-29 -17 -92 -63 -66 -50 23 12 12 -3 -15 -21
-27 -17 -28 -17 -13 1 8 10 -20 -5 -62 -33 -43 -29 -78 -55 -78 -59 0 -3 8 1
17 8 9 8 14 9 11 4 -4 -6 -28 -25 -55 -44 l-48 -33 35 32 35 32 -49 -34 c-87
-59 -271 -210 -404 -331 -179 -163 -454 -467 -445 -493 2 -6 -4 -17 -14 -25
-17 -13 -17 -13 -3 6 14 18 14 19 -2 7 -9 -8 -15 -19 -12 -26 3 -7 -3 -19 -13
-27 -17 -13 -17 -13 -3 6 14 18 14 19 -2 7 -9 -8 -15 -19 -12 -26 3 -7 -3 -19
-13 -27 -17 -13 -17 -13 -3 6 14 18 14 19 -2 7 -9 -8 -15 -19 -12 -26 3 -7 -3
-19 -13 -27 -16 -13 -17 -12 -4 4 7 9 11 17 8 17 -4 0 -25 -28 -48 -62 -24
-35 -34 -56 -24 -48 12 10 9 1 -10 -27 -26 -40 -44 -58 -30 -30 4 6 -1 3 -10
-8 -26 -32 -41 -65 -15 -35 15 18 19 19 11 5 -12 -25 -45 -66 -36 -45 4 8 -1
6 -10 -5 -24 -29 -59 -98 -45 -90 9 6 9 2 1 -14 -7 -11 -14 -21 -17 -21 -3 0
-2 5 1 10 3 6 4 10 1 10 -3 0 -13 -14 -22 -31 -8 -17 -11 -28 -4 -24 6 4 -17
-50 -52 -119 -34 -68 -65 -123 -69 -121 -8 5 -32 -46 -24 -53 3 -3 5 1 5 8 0
7 2 11 5 8 8 -8 -17 -58 -25 -53 -12 7 -40 -72 -33 -91 4 -11 2 -15 -4 -11
-14 9 -24 -18 -16 -40 4 -10 2 -14 -4 -10 -14 9 -24 -18 -16 -40 5 -11 3 -14
-6 -8 -10 6 -11 2 -6 -15 5 -14 3 -20 -3 -16 -11 7 -35 -51 -26 -65 8 -14 -6
-50 -18 -43 -6 4 -8 -1 -3 -16 5 -17 4 -21 -6 -15 -9 6 -11 2 -7 -13 4 -12 3
-20 -2 -17 -11 7 -21 -40 -13 -61 4 -12 3 -15 -6 -10 -9 6 -10 0 -6 -21 5 -22
4 -25 -5 -13 -9 12 -10 9 -5 -13 4 -19 2 -26 -5 -22 -7 4 -9 -3 -5 -22 5 -22
4 -25 -5 -13 -9 12 -10 9 -5 -13 4 -21 3 -27 -6 -21 -9 5 -10 -1 -5 -20 5 -20
4 -26 -5 -20 -9 5 -10 -1 -5 -20 5 -19 3 -26 -4 -21 -7 4 -9 -3 -5 -22 5 -22
4 -25 -5 -13 -9 12 -11 8 -6 -18 4 -22 2 -31 -5 -27 -7 5 -8 -6 -4 -32 5 -29
4 -35 -5 -23 -9 12 -10 7 -5 -20 5 -27 4 -31 -5 -20 -8 11 -9 5 -5 -25 5 -31
4 -37 -5 -25 -9 12 -10 7 -5 -23 4 -28 3 -37 -5 -32 -8 5 -9 -4 -5 -32 5 -30
4 -35 -5 -23 -9 12 -10 7 -5 -23 4 -27 3 -37 -5 -32 -7 4 -9 -7 -5 -37 4 -33
3 -39 -5 -23 -8 15 -9 9 -5 -28 3 -33 1 -46 -6 -41 -7 4 -9 -9 -5 -42 5 -37 4
-44 -4 -29 -8 15 -9 7 -5 -33 4 -39 3 -52 -6 -47 -8 6 -10 -9 -5 -56 4 -46 3
-57 -4 -39 -7 18 -8 3 -4 -50 3 -55 2 -71 -6 -60 -8 11 -9 -8 -6 -70 4 -60 2
-76 -4 -55 -8 27 -9 26 -6 -13 3 -27 1 -40 -6 -36 -7 5 -9 -2 -4 -20 5 -20 4
-26 -5 -20 -9 5 -10 1 -7 -14 4 -12 2 -22 -4 -22 -5 0 -6 -10 -3 -21 5 -16 4
-19 -5 -14 -10 6 -11 1 -6 -19 5 -19 3 -26 -4 -21 -7 4 -9 -3 -5 -22 5 -22 4
-25 -5 -13 -9 12 -10 9 -5 -13 4 -20 2 -27 -6 -22 -8 5 -9 -2 -4 -26 5 -27 4
-31 -5 -19 -9 12 -10 8 -6 -18 4 -22 2 -31 -5 -26 -8 4 -9 -4 -4 -27 5 -27 4
-31 -5 -19 -9 12 -10 8 -6 -18 4 -22 2 -31 -5 -26 -8 4 -9 -4 -4 -27 5 -27 4
-31 -5 -19 -9 12 -10 6 -5 -23 5 -29 3 -37 -5 -32 -9 6 -10 -4 -6 -36 6 -34 5
-41 -4 -29 -9 12 -10 6 -5 -23 4 -28 3 -37 -5 -32 -8 5 -10 -6 -6 -41 5 -37 4
-44 -4 -29 -8 15 -9 5 -5 -40 4 -43 2 -56 -5 -45 -8 11 -9 -3 -5 -50 3 -47 2
-58 -5 -40 -7 17 -8 -2 -4 -65 3 -49 1 -85 -3 -78 -4 6 -8 -101 -8 -237 0
-140 4 -246 9 -243 5 3 6 -29 3 -73 -4 -54 -3 -71 3 -54 7 18 8 7 4 -38 -4
-45 -2 -62 6 -57 8 5 9 -9 5 -47 -4 -40 -3 -48 5 -33 8 16 9 10 5 -23 -4 -29
-2 -41 5 -37 7 4 9 -8 5 -37 -4 -33 -3 -39 5 -23 8 16 9 10 5 -23 -4 -28 -2
-41 5 -37 6 4 8 -6 4 -27 -4 -26 -3 -30 6 -18 9 12 10 8 5 -19 -5 -23 -4 -31
4 -27 7 5 9 -4 5 -26 -4 -26 -3 -30 6 -18 9 12 10 8 5 -19 -5 -24 -4 -31 4
-26 8 5 10 -1 5 -21 -5 -20 -4 -25 6 -19 9 5 10 2 5 -15 -5 -16 -4 -20 4 -15
8 5 10 -2 6 -22 -5 -22 -4 -25 5 -13 9 12 10 9 5 -13 -4 -21 -3 -27 6 -21 9 5
10 2 6 -10 -9 -23 2 -68 15 -60 6 4 7 -2 3 -16 -5 -17 -4 -21 6 -15 9 6 11 3
6 -8 -8 -22 12 -79 25 -71 6 4 8 -2 3 -16 -5 -17 -4 -21 6 -15 9 6 11 3 6 -9
-8 -21 22 -98 35 -90 6 4 8 -1 5 -12 -4 -11 0 -30 8 -44 8 -14 15 -20 15 -15
0 13 20 -16 20 -30 0 -5 -5 -3 -10 5 -13 21 -12 6 1 -24 7 -14 15 -23 19 -21
4 2 14 -12 24 -31 9 -20 11 -32 6 -29 -14 8 62 -142 85 -170 9 -11 14 -14 10
-7 -11 21 4 13 16 -9 8 -16 8 -20 -1 -14 -9 6 -9 2 -1 -14 7 -11 14 -21 17
-21 3 0 2 5 -1 10 -3 6 -4 10 -1 10 3 0 10 -10 17 -21 8 -16 8 -20 -1 -14 -9
6 -9 2 -1 -14 7 -11 14 -21 17 -21 3 0 2 4 -1 10 -3 5 -4 10 -2 10 2 0 17 -19
32 -42 19 -29 22 -38 10 -28 -11 8 -5 -6 14 -32 17 -27 35 -48 38 -48 3 0 0 7
-7 15 -7 8 -10 15 -7 15 3 0 16 -15 28 -33 20 -28 21 -30 4 -17 -18 13 -19 13
-9 0 56 -80 203 -246 296 -335 110 -106 264 -234 223 -185 -18 21 -16 21 17
-4 35 -26 55 -50 25 -30 -7 5 1 -3 18 -18 16 -15 44 -34 60 -43 30 -16 30 -16
6 2 -63 46 -59 50 6 7 40 -26 73 -49 73 -51 0 -2 -4 -1 -10 2 -5 3 -10 4 -10
1 0 -3 10 -10 21 -17 16 -8 20 -8 14 1 -6 9 -2 9 14 1 11 -7 21 -14 21 -17 0
-3 -4 -2 -10 1 -5 3 -10 4 -10 1 0 -3 10 -10 21 -17 16 -8 20 -8 14 1 -4 6 11
2 34 -9 23 -12 41 -24 41 -27 0 -2 -9 0 -20 6 -11 6 -20 8 -20 5 0 -6 136 -75
147 -75 5 0 1 5 -7 10 -8 5 -10 10 -5 9 14 0 62 -28 50 -29 -12 -1 36 -29 50
-29 6 -1 3 4 -5 9 -8 5 -10 10 -5 10 13 0 43 -20 30 -20 -13 0 17 -20 30 -20
6 0 3 5 -5 11 -12 9 -12 10 3 5 10 -3 21 -6 23 -6 3 0 3 -4 0 -9 -8 -12 50
-32 71 -24 11 5 14 3 8 -6 -6 -10 -2 -11 15 -6 16 5 20 4 15 -4 -5 -8 2 -10
22 -6 22 5 25 4 13 -5 -12 -9 -9 -10 13 -5 19 4 26 2 22 -5 -4 -7 3 -9 22 -5
22 5 25 4 13 -5 -12 -9 -9 -10 13 -5 19 4 26 2 22 -5 -4 -7 3 -9 22 -5 22 5
25 4 13 -5 -12 -9 -8 -11 18 -6 22 4 31 2 26 -5 -4 -8 4 -9 27 -4 27 5 31 4
19 -5 -12 -9 -6 -10 23 -5 28 4 37 3 32 -5 -5 -8 4 -10 32 -6 30 5 34 4 18 -4
-15 -8 -9 -9 28 -5 33 3 46 1 41 -6 -5 -8 9 -9 47 -5 40 4 49 3 34 -4 -14 -7
1 -9 55 -5 53 4 71 3 60 -5 -10 -7 44 -10 180 -10 134 0 190 3 180 10 -10 7
10 9 65 5 57 -3 73 -2 55 5 -18 7 -8 8 40 5 48 -4 61 -3 50 5 -11 8 -2 9 35 5
38 -4 45 -3 30 5 -15 8 -8 9 30 5 37 -4 46 -3 35 5 -11 8 -3 9 30 5 35 -4 40
-3 25 5 -16 8 -12 9 18 4 26 -3 37 -2 32 5 -4 7 5 9 27 5 26 -5 30 -3 18 6
-12 9 -8 11 18 6 22 -4 31 -2 26 5 -4 8 4 9 27 4 27 -5 31 -4 19 5 -12 9 -9
10 13 5 20 -4 27 -2 22 6 -5 8 1 9 21 5 55 -11 55 8 2 38 -28 16 -47 23 -43
16 6 -9 3 -10 -14 -1 -11 7 -21 14 -21 17 0 3 5 2 10 -1 6 -3 10 -4 10 -1 0 3
-14 13 -31 22 -18 9 -28 11 -24 4 6 -9 2 -9 -14 -1 -22 12 -30 27 -8 16 6 -4
3 1 -8 9 -11 9 -25 14 -32 12 -7 -3 -15 0 -19 6 -4 7 -3 8 4 4 7 -4 12 -5 12
-2 0 3 -10 10 -21 17 -16 8 -20 8 -14 -1 6 -9 2 -9 -14 -1 -22 12 -30 27 -8
16 18 -10 -25 25 -47 37 -14 7 -17 7 -11 -2 6 -9 2 -9 -14 -1 -11 7 -21 14
-21 17 0 3 5 2 10 -1 6 -3 10 -4 10 -2 0 2 -26 21 -57 42 -32 21 -51 30 -43
20 12 -15 8 -15 -17 4 -18 12 -33 25 -33 28 0 3 8 -1 18 -8 41 -31 -10 14 -93
83 -49 41 -114 103 -144 139 -30 35 -61 71 -70 79 -13 13 -14 13 -5 0 5 -9 -1
-4 -14 10 -12 14 -20 30 -17 37 2 7 -1 15 -7 19 -7 4 -8 3 -4 -4 4 -7 5 -12 2
-12 -3 0 -10 10 -17 21 -8 16 -8 20 1 14 6 -4 2 11 -9 34 -12 23 -24 41 -27
41 -2 0 0 -9 6 -20 6 -11 8 -20 6 -20 -9 0 -38 62 -32 68 3 3 6 -1 6 -8 0 -7
2 -11 5 -8 10 9 -28 78 -38 71 -6 -4 -8 0 -4 10 8 22 -2 49 -15 41 -6 -4 -7 2
-3 16 5 16 4 20 -5 15 -9 -5 -10 -1 -5 15 5 15 4 20 -4 16 -6 -4 -11 -4 -11 1
1 19 18 33 50 39 19 4 31 3 28 -2 -4 -5 74 -9 187 -9 106 0 192 2 190 5 -2 3
39 5 90 5 51 0 91 3 89 7 -3 4 9 5 27 1 24 -4 30 -3 25 6 -6 9 2 11 31 7 30
-5 34 -4 18 4 -16 8 -12 9 18 4 27 -3 37 -2 32 6 -4 7 7 9 37 4 33 -4 40 -3
28 6 -12 9 -5 10 29 4 30 -4 41 -3 37 4 -5 8 10 10 46 7 41 -4 48 -3 28 5 -18
7 -8 8 40 5 46 -4 61 -3 50 5 -11 7 9 8 65 5 44 -2 67 -1 51 3 -17 4 89 7 234
7 145 0 251 -3 234 -7 -16 -4 4 -5 44 -3 50 4 71 2 67 -5 -5 -8 10 -9 47 -5
40 4 48 3 33 -5 -16 -8 -10 -9 23 -5 31 4 41 2 36 -6 -5 -8 6 -9 37 -5 33 4
39 3 24 -4 -16 -8 -12 -9 18 -6 24 3 35 1 31 -6 -4 -7 5 -8 27 -3 27 5 31 4
19 -5 -12 -9 -8 -10 18 -6 23 4 31 2 26 -6 -5 -8 1 -9 20 -4 20 5 26 4 20 -5
-5 -9 1 -10 20 -5 19 5 26 3 21 -4 -4 -7 3 -9 22 -5 22 5 25 4 13 -5 -12 -9
-9 -10 13 -5 20 4 27 2 22 -6 -5 -8 -1 -9 15 -4 16 5 20 4 15 -5 -5 -9 -1 -10
15 -5 16 5 20 4 15 -5 -5 -9 -1 -10 15 -5 16 5 20 4 15 -5 -5 -9 -1 -10 15 -5
14 4 20 3 16 -3 -8 -13 19 -23 41 -15 10 4 14 2 10 -4 -6 -10 3 -15 68 -38 16
-6 17 -5 5 4 -8 6 -10 11 -5 10 14 0 62 -28 50 -29 -12 -1 36 -29 50 -29 6 -1
3 4 -5 9 -21 13 -6 12 24 -1 14 -7 23 -16 20 -20 -3 -5 3 -6 12 -2 13 5 15 3
9 -7 -5 -9 -4 -11 3 -6 11 6 72 -19 72 -30 0 -2 -9 0 -20 6 -11 6 -20 8 -20 6
0 -3 23 -17 51 -32 28 -14 48 -20 44 -14 -6 9 -2 9 14 1 11 -7 21 -14 21 -17
0 -3 -4 -2 -10 1 -5 3 -10 4 -10 1 0 -3 10 -10 21 -17 16 -8 20 -8 14 1 -6 9
-2 9 14 1 22 -12 30 -27 9 -16 -19 10 24 -25 46 -37 14 -7 17 -7 11 2 -6 9 -2
9 14 1 11 -7 21 -14 21 -17 0 -3 -5 -2 -12 2 -7 4 -8 3 -4 -4 4 -6 12 -9 19
-7 7 3 23 -5 37 -17 14 -13 21 -21 15 -18 -6 3 1 -5 15 -18 14 -12 30 -20 37
-18 6 3 17 -3 25 -12 12 -16 11 -16 -7 -2 -48 34 8 -14 105 -91 136 -108 390
-357 542 -532 66 -75 123 -137 126 -137 3 0 -7 15 -24 32 l-29 33 33 -29 c17
-17 31 -35 30 -42 -3 -14 138 -194 152 -194 6 0 10 26 9 58 -1 46 -3 52 -10
32 -6 -17 -7 -4 -3 38 4 45 2 62 -6 57 -8 -5 -9 9 -5 47 4 40 3 48 -5 33 -8
-15 -9 -8 -4 29 4 34 2 46 -5 41 -8 -4 -10 7 -5 37 4 33 3 40 -6 28 -9 -12
-10 -5 -4 29 4 29 3 41 -4 37 -7 -4 -9 6 -6 31 3 30 2 34 -6 18 -8 -15 -9 -9
-4 25 4 34 3 41 -6 30 -8 -11 -9 -5 -5 25 5 31 4 37 -5 25 -9 -12 -11 -8 -6
18 4 22 2 31 -5 26 -8 -4 -9 4 -4 27 5 26 4 31 -5 19 -9 -12 -10 -7 -5 19 5
23 4 31 -4 27 -7 -5 -9 4 -5 26 5 26 3 30 -6 18 -9 -12 -10 -9 -5 13 4 19 2
26 -5 22 -7 -4 -9 3 -5 22 5 22 4 25 -5 13 -9 -12 -10 -9 -5 13 4 19 2 26 -5
22 -7 -5 -9 2 -4 21 5 21 4 25 -6 19 -10 -6 -12 -4 -7 9 9 23 -2 68 -15 60 -6
-4 -7 2 -3 16 5 16 4 20 -5 15 -9 -5 -10 -1 -5 15 5 16 4 20 -5 15 -9 -5 -10
-1 -5 15 5 15 3 20 -3 16 -12 -7 -26 29 -18 43 9 14 -5 42 -17 34 -6 -4 -8 0
-4 10 7 20 -11 79 -23 72 -9 -6 -23 25 -15 33 3 3 5 -1 5 -8 0 -7 2 -11 5 -8
8 8 -17 58 -25 53 -10 -6 -22 24 -15 35 7 11 -16 61 -25 55 -11 -7 -22 24 -13
37 4 7 1 8 -7 3 -10 -6 -12 -4 -7 9 4 9 3 15 -2 12 -4 -3 -13 6 -20 20 -7 17
-8 23 0 19 6 -4 -1 16 -15 44 -15 28 -29 51 -32 51 -3 0 -2 -4 1 -10 3 -5 4
-10 1 -10 -3 0 -10 10 -17 21 -9 17 -8 20 2 14 9 -6 11 -3 6 8 -3 10 -2 17 3
17 6 0 10 -4 10 -10 0 -5 7 -6 17 -3 11 5 14 3 8 -6 -6 -10 -2 -11 15 -6 16 5
20 4 15 -5 -5 -9 -1 -10 15 -5 16 5 20 4 15 -5 -5 -9 -1 -10 15 -5 16 5 20 4
15 -5 -5 -9 -1 -10 15 -5 16 5 20 4 15 -4 -5 -8 2 -10 22 -6 22 5 25 4 13 -5
-12 -9 -9 -10 13 -5 19 4 26 2 22 -5 -4 -7 3 -9 22 -5 22 5 25 4 13 -5 -12 -9
-9 -10 13 -5 19 4 26 2 22 -5 -4 -7 3 -9 22 -5 22 5 25 4 13 -5 -12 -9 -9 -10
13 -5 20 4 27 2 22 -5 -5 -8 5 -9 32 -5 29 5 35 4 23 -5 -12 -9 -8 -10 19 -5
23 5 31 4 27 -4 -5 -7 4 -9 26 -5 26 5 30 3 18 -6 -12 -9 -8 -11 18 -6 23 4
31 2 26 -5 -4 -8 7 -9 37 -5 33 4 39 3 24 -4 -15 -8 -9 -9 28 -5 33 3 46 1 41
-6 -4 -7 9 -9 42 -5 37 5 44 4 29 -4 -15 -8 -3 -9 45 -5 36 3 60 2 53 -2 -6
-4 83 -8 197 -8 114 0 203 3 197 8 -7 4 17 5 53 2 48 -4 60 -3 45 5 -15 8 -8
9 29 4 31 -4 46 -2 42 5 -4 6 7 8 31 5 31 -3 34 -2 18 6 -16 8 -12 9 18 4 26
-3 37 -2 32 5 -4 7 5 9 27 5 26 -4 30 -3 18 6 -12 9 -8 10 19 5 25 -5 32 -4
26 5 -5 9 -1 10 15 5 16 -5 20 -4 15 5 -5 9 -2 10 14 5 11 -3 21 -2 21 3 0 6
10 8 22 4 16 -4 19 -2 13 8 -6 10 -4 12 8 7 9 -3 27 -2 39 3 14 5 17 9 8 10
-9 1 -6 5 8 10 12 5 30 6 39 3 10 -4 14 -2 10 4 -9 14 18 24 40 16 10 -4 14
-2 10 4 -7 11 42 38 51 28 3 -3 -1 -5 -8 -5 -7 0 -11 -3 -8 -6 6 -6 168 73
168 82 0 3 -4 2 -10 -1 -5 -3 -10 -4 -10 -1 0 3 10 10 21 17 16 8 20 8 14 -1
-6 -9 -2 -9 14 -1 11 7 21 14 21 17 0 3 -5 2 -10 -1 -5 -3 -10 -4 -10 -1 0 3
10 10 21 17 16 8 20 8 14 -1 -6 -9 -2 -9 14 -1 11 7 21 14 21 17 0 3 -6 2 -12
-1 -7 -4 -2 3 12 14 14 11 30 19 37 16 7 -2 15 1 19 7 4 7 3 8 -4 4 -25 -15
-10 3 16 20 26 17 27 17 12 -1 -8 -11 7 -4 33 15 26 19 53 41 60 50 10 13 10
13 -9 0 -11 -8 -5 -1 14 16 19 17 41 30 50 29 10 -1 50 -18 90 -39 40 -20 77
-34 82 -31 11 7 41 -5 35 -15 -7 -11 22 -20 42 -13 11 5 14 3 8 -6 -6 -10 -2
-11 15 -6 16 5 20 4 15 -4 -5 -8 2 -10 22 -6 22 5 25 4 13 -5 -12 -9 -9 -10
13 -5 20 4 27 2 22 -6 -5 -8 2 -9 26 -4 27 5 31 4 19 -5 -12 -9 -6 -10 23 -5
22 3 37 3 34 -2 -3 -4 55 -8 128 -8 73 0 131 4 128 8 -3 5 12 5 34 2 29 -5 35
-4 23 5 -12 9 -8 10 18 5 20 -4 32 -3 32 4 0 7 11 9 28 5 22 -4 24 -3 12 6
-12 9 -9 10 13 5 19 -4 26 -2 22 5 -4 7 3 9 22 5 22 -5 25 -4 13 5 -12 9 -9
10 13 5 18 -3 26 -2 23 4 -7 11 29 25 43 17 14 -9 72 15 65 26 -4 6 2 8 16 3
17 -5 21 -4 15 6 -6 9 -3 11 8 6 22 -8 79 12 71 25 -4 6 2 8 16 3 14 -4 20 -3
16 3 -8 13 19 23 41 15 11 -5 14 -3 8 6 -6 10 -2 11 15 6 15 -5 20 -3 16 3 -7
12 29 26 43 18 11 -7 71 13 71 24 0 4 10 6 23 3 18 -4 19 -3 7 7 -12 9 -10 10
13 5 19 -4 26 -2 22 5 -4 7 3 9 22 5 22 -5 25 -4 13 5 -12 9 -9 10 13 5 21 -4
27 -3 21 6 -5 9 -2 10 9 6 13 -5 17 -1 17 14 0 19 -4 20 -36 14 -26 -4 -34 -3
-29 5 6 9 -4 11 -36 6 -33 -4 -39 -3 -24 4 15 8 10 9 -23 5 -31 -4 -41 -2 -36
6 5 8 -6 9 -37 5 -33 -4 -39 -3 -24 4 15 8 6 9 -33 5 -39 -4 -52 -3 -47 6 6 8
-7 10 -46 5 -40 -4 -49 -3 -34 4 15 8 6 9 -35 5 -40 -4 -51 -3 -40 5 11 8 -3
9 -50 5 -48 -3 -58 -2 -40 5 20 8 13 9 -28 5 -36 -3 -51 -1 -46 7 4 7 -10 8
-47 4 -40 -4 -49 -3 -34 4 15 8 10 9 -23 5 -31 -4 -41 -2 -36 6 4 8 -3 9 -26
4 -25 -5 -31 -4 -25 5 6 10 1 11 -19 6 -20 -5 -26 -3 -21 5 5 8 1 9 -15 4 -14
-4 -20 -3 -17 2 7 11 -40 36 -53 28 -4 -3 -14 3 -21 13 -13 16 -12 16 6 2 11
-8 4 3 -14 23 -41 43 -48 47 -25 12 9 -14 14 -25 11 -25 -3 0 -15 17 -28 38
-12 20 -32 48 -43 62 l-21 25 28 -24 c15 -14 27 -20 27 -15 -1 9 -12 18 -90
72 l-35 24 35 -32 35 -32 -48 33 c-27 19 -51 38 -55 44 -3 5 2 4 11 -4 9 -7
17 -11 17 -8 0 3 -28 26 -62 50 -81 57 -93 64 -83 48 6 -10 3 -11 -14 -2 -11
7 -21 14 -21 17 0 3 5 2 10 -1 6 -3 10 -4 10 -1 0 10 -81 47 -90 41 -6 -3 -10
-1 -10 5 0 6 -5 8 -10 5 -15 -9 -51 5 -44 17 4 7 -5 8 -27 3 -26 -5 -31 -4
-19 5 12 9 7 10 -19 5 -18 -4 -31 -3 -28 1 3 5 -50 9 -118 9 -68 0 -121 -4
-118 -8 3 -5 -17 -6 -43 -3 -37 5 -44 4 -29 -4 16 -8 12 -9 -18 -4 -26 3 -37
2 -32 -5 4 -7 -5 -9 -27 -5 -26 5 -30 3 -18 -6 12 -9 9 -10 -13 -5 -19 4 -26
2 -22 -5 5 -7 -2 -9 -21 -4 -19 5 -25 4 -20 -5 6 -9 0 -10 -20 -5 -20 5 -25 4
-19 -6 5 -9 2 -10 -15 -5 -16 5 -20 4 -15 -5 5 -9 1 -10 -15 -5 -16 5 -20 4
-15 -5 5 -9 1 -10 -15 -5 -16 5 -20 4 -15 -5 5 -9 1 -10 -15 -5 -16 5 -20 4
-15 -5 5 -8 2 -10 -11 -6 -11 3 -25 2 -32 -3 -24 -15 466 -457 495 -447 6 3
17 -3 25 -12 12 -16 11 -16 -6 -2 -12 9 -17 10 -12 3 4 -7 16 -18 28 -24 16
-8 19 -8 13 1 -4 7 4 4 19 -5 29 -19 34 -27 11 -19 -8 4 -15 1 -15 -5 0 -6 5
-11 12 -11 6 0 9 -2 7 -5 -8 -7 -49 7 -44 15 8 12 -29 22 -50 14 -12 -5 -16
-4 -12 3 9 14 -48 34 -70 26 -11 -5 -14 -3 -8 6 6 10 2 11 -15 6 -16 -5 -20
-4 -15 5 5 9 1 10 -15 5 -16 -5 -20 -4 -15 5 5 9 1 10 -15 5 -14 -4 -20 -3
-16 3 8 13 -19 23 -41 15 -10 -4 -14 -2 -10 4 9 14 -48 34 -70 26 -12 -5 -14
-3 -8 7 6 10 4 12 -8 7 -20 -7 -49 2 -42 13 7 11 -22 20 -42 13 -10 -4 -14 -2
-10 4 9 14 -18 24 -40 16 -11 -4 -14 -3 -9 5 4 7 1 13 -6 13 -7 1 -20 3 -28 4
-8 1 -21 3 -28 4 -7 0 -11 5 -8 10 6 10 -42 34 -54 26 -11 -7 -41 5 -35 14 5
9 -65 44 -73 36 -3 -3 1 -5 8 -5 7 0 11 -2 8 -5 -8 -9 -58 17 -52 26 3 5 -3 6
-12 2 -12 -4 -15 -3 -10 5 5 8 1 10 -10 5 -13 -5 -15 -3 -9 7 5 8 4 11 -3 7
-13 -9 -44 2 -37 13 3 4 -2 11 -11 14 -9 3 -12 2 -8 -5 3 -6 -12 -1 -35 10
-23 12 -41 24 -41 27 0 3 5 2 10 -1 6 -3 10 -4 10 -1 0 3 -23 17 -51 32 -28
14 -48 20 -44 14 4 -6 -7 -4 -24 4 -17 9 -31 19 -31 22 0 2 9 0 20 -6 11 -6
20 -8 20 -6 0 3 -14 13 -31 22 -18 9 -28 11 -24 4 6 -9 2 -9 -14 -1 -11 7 -21
14 -21 17 0 3 5 2 10 -1 6 -3 10 -4 10 -1 0 3 -14 13 -31 22 -18 9 -28 11 -24
4 6 -9 2 -9 -14 -1 -22 12 -30 27 -8 16 18 -10 -25 25 -47 37 -14 7 -17 7 -11
-2 6 -9 2 -9 -14 -1 -22 12 -30 27 -8 16 6 -4 3 1 -8 10 -32 27 -65 40 -35 15
l25 -22 -33 18 c-18 10 -45 29 -60 42 l-27 24 33 -22 c17 -12 32 -19 32 -16 0
5 -136 101 -170 119 -8 5 -1 -3 15 -18 l30 -27 -31 21 c-36 23 -49 57 -27 65
8 4 11 1 7 -5 -3 -6 12 -1 35 10 23 12 41 24 41 27 0 3 -4 2 -10 -1 -5 -3 -10
-4 -10 -1 0 3 10 10 21 17 16 8 20 8 14 -1 -4 -7 6 -5 24 4 17 9 31 19 31 22
0 3 -4 2 -10 -1 -5 -3 -10 -4 -10 -1 0 3 10 10 21 17 16 8 20 8 14 -1 -6 -9
-2 -9 14 -1 22 12 30 27 9 16 -7 -4 -4 1 7 10 11 9 29 21 40 26 15 8 13 4 -5
-11 -14 -12 -18 -18 -10 -14 31 16 160 105 160 111 0 3 -7 0 -15 -7 -8 -7 -15
-10 -15 -7 0 3 15 16 33 28 27 19 29 20 17 4 -16 -21 86 48 135 91 29 25 28
25 -10 -2 -22 -15 -55 -39 -72 -52 -18 -13 -33 -22 -33 -19 0 3 29 26 64 52
51 38 73 48 111 50 33 2 44 0 34 -7 -10 -7 -6 -8 14 -3 20 4 27 2 22 -6 -5 -8
2 -9 26 -4 27 5 31 4 19 -5 -12 -9 -9 -10 13 -5 20 4 27 2 22 -6 -5 -8 2 -9
26 -4 27 5 31 4 19 -5 -12 -9 -9 -10 13 -5 20 4 27 2 22 -6 -5 -8 2 -9 26 -4
27 5 31 4 19 -5 -12 -9 -9 -10 13 -5 20 4 27 2 22 -6 -5 -8 2 -9 26 -4 26 5
31 4 19 -5 -12 -9 -7 -10 19 -5 25 5 32 4 26 -5 -6 -9 1 -10 26 -5 27 5 31 4
19 -5 -12 -9 -8 -10 18 -6 22 4 31 2 26 -5 -4 -8 4 -9 27 -4 27 5 31 4 19 -5
-12 -9 -8 -10 18 -6 23 4 31 2 26 -6 -5 -8 4 -9 32 -4 30 5 36 4 24 -4 -12 -9
-7 -10 23 -6 25 3 35 1 31 -6 -4 -7 8 -8 37 -4 33 4 39 3 24 -4 -15 -8 -10 -9
23 -5 30 4 41 2 37 -5 -5 -8 10 -9 47 -5 40 4 48 3 33 -5 -15 -8 -7 -9 33 -5
37 4 52 3 47 -5 -5 -7 14 -9 62 -6 38 3 55 2 38 -2 -16 -4 80 -7 214 -7 135 0
232 3 215 7 -16 4 2 5 39 2 49 -3 67 -2 62 6 -5 8 7 10 41 6 37 -5 44 -4 29 4
-15 8 -10 9 23 5 30 -4 41 -2 37 5 -5 8 5 9 32 5 29 -5 35 -4 23 5 -12 9 -8
10 19 5 23 -5 31 -4 27 4 -5 7 4 9 26 5 26 -5 30 -3 18 6 -12 9 -9 10 13 5 19
-4 26 -2 22 5 -5 7 2 9 21 4 21 -5 25 -4 19 6 -6 10 -4 12 9 7 10 -4 29 -4 43
-1 19 5 22 9 11 16 -9 7 -4 8 15 3 20 -4 27 -2 22 6 -5 8 -1 9 15 4 17 -5 21
-4 15 6 -7 10 10 11 79 5 57 -4 85 -3 81 4 -4 6 6 8 27 4 26 -5 30 -3 18 6
-12 9 -9 10 13 5 20 -4 27 -2 22 6 -5 8 -1 9 15 4 17 -5 21 -4 15 6 -6 9 -3
11 9 6 16 -6 116 36 116 49 0 3 -4 2 -10 -1 -5 -3 -10 -4 -10 -2 0 10 81 57
89 52 5 -2 15 3 22 13 13 16 13 16 -6 2 -19 -14 -19 -14 -6 3 8 10 20 16 27
13 6 -2 22 7 35 22 l24 27 -30 -25 -30 -25 25 28 c13 15 29 26 35 23 7 -2 77
57 156 131 201 190 301 278 397 352 45 35 82 66 82 69 0 2 -7 -1 -15 -8 -8 -7
-15 -10 -15 -7 0 3 15 16 33 28 25 19 29 19 17 4 -8 -10 11 -1 43 20 31 21 57
40 57 42 0 2 -4 1 -10 -2 -5 -3 -10 -4 -10 -1 0 3 10 10 21 17 16 8 20 8 14
-1 -6 -9 -2 -9 14 -1 11 7 21 14 21 17 0 3 -5 2 -12 -2 -7 -4 -8 -3 -4 4 4 6
12 9 19 6 7 -2 21 3 32 12 11 8 14 13 8 9 -22 -11 -14 4 8 16 16 8 20 8 14 -1
-4 -6 20 3 54 20 34 16 61 33 61 35 0 3 -9 1 -20 -5 -11 -6 -20 -8 -20 -6 0
10 81 47 90 41 12 -7 61 16 54 26 -3 5 1 10 8 10 7 1 20 3 28 4 8 1 21 3 28 4
7 0 10 6 6 13 -5 8 -2 9 9 5 22 -8 49 2 41 15 -4 6 2 7 16 3 14 -4 20 -3 16 3
-7 11 21 25 35 16 14 -8 50 6 43 18 -4 6 1 8 13 4 24 -8 55 2 47 15 -3 6 6 7
23 4 22 -5 25 -4 13 5 -12 9 -9 10 13 5 19 -4 26 -2 22 5 -4 7 3 9 22 5 22 -5
25 -4 13 5 -12 9 -9 10 13 5 19 -4 26 -2 22 5 -4 7 3 9 22 5 22 -5 25 -4 13 5
-12 9 -8 10 19 5 23 -5 31 -4 27 4 -5 7 4 9 26 5 26 -4 30 -3 18 6 -12 9 -8
10 19 5 23 -5 31 -4 27 4 -5 7 4 9 26 5 26 -5 30 -3 18 6 -12 9 -7 10 23 5 28
-4 37 -3 32 5 -5 8 4 9 32 5 29 -5 35 -4 23 5 -11 8 -6 9 24 4 28 -5 37 -4 32
4 -5 8 7 10 41 7 37 -4 43 -3 28 5 -15 8 -9 9 28 4 28 -3 47 -1 47 5 0 6 23 8
58 5 44 -3 51 -1 32 6 -18 7 -6 8 44 4 48 -4 66 -3 62 5 -5 8 21 10 86 6 60
-2 81 -1 58 4 -20 5 41 6 141 3 130 -4 178 -2 183 7 9 15 -11 41 -27 36 -7 -3
-34 16 -62 41 l-50 46 55 -42 c44 -34 48 -35 18 -8 -58 54 -165 135 -143 108
11 -13 -8 -2 -42 24 -35 26 -63 50 -63 52 0 3 18 -9 40 -26 22 -17 40 -29 40
-26 0 6 -159 127 -265 201 -38 27 -63 41 -55 31 8 -11 -11 -2 -42 19 -32 21
-58 40 -58 42 0 2 5 1 12 -3 7 -4 8 -3 4 4 -4 6 -12 9 -19 7 -7 -3 -23 5 -37
16 -14 11 -18 18 -10 14 21 -9 -28 29 -63 50 -17 10 -27 12 -22 5 6 -9 3 -10
-14 -1 -11 7 -21 14 -21 17 0 3 5 2 10 -1 6 -3 10 -4 10 -1 0 3 -14 13 -31 22
-18 9 -28 11 -24 4 6 -9 2 -9 -14 -1 -11 7 -21 14 -21 17 0 3 5 2 10 -1 6 -3
10 -4 10 -1 0 3 -10 10 -21 17 -16 8 -20 8 -14 -1 6 -9 2 -9 -14 -1 -11 7 -21
14 -21 17 0 3 5 2 10 -1 6 -3 10 -4 10 -1 0 3 -14 13 -31 22 -17 8 -28 11 -24
5 4 -8 -2 -8 -19 0 -14 7 -23 16 -19 22 3 6 1 7 -5 3 -11 -6 -72 19 -72 30 0
2 9 0 20 -6 11 -6 20 -8 20 -5 0 10 -121 66 -130 60 -5 -3 -22 1 -37 9 -16 8
-23 16 -18 16 12 1 -36 29 -50 29 -5 1 -3 -4 5 -9 8 -5 11 -10 5 -9 -14 0 -62
28 -50 29 6 0 3 5 -5 10 -8 5 -23 7 -34 4 -11 -4 -16 -2 -12 4 8 13 -19 23
-41 15 -11 -5 -14 -3 -8 6 6 10 2 11 -15 6 -14 -4 -20 -3 -16 3 6 10 -23 26
-32 17 -3 -3 1 -5 8 -5 7 0 11 -2 8 -5 -8 -8 -39 6 -33 15 8 12 -89 42 -110
34 -12 -5 -16 -4 -11 4 8 14 -26 25 -49 16 -13 -5 -16 -4 -11 5 6 9 0 10 -21
6 -22 -5 -25 -4 -13 5 12 9 9 10 -13 5 -19 -4 -26 -2 -22 5 4 7 -3 9 -22 5
-22 -5 -25 -4 -13 5 12 9 8 11 -18 6 -21 -4 -31 -2 -27 5 4 6 -3 8 -22 4 -22
-5 -25 -4 -13 5 12 9 8 11 -18 6 -22 -4 -31 -2 -26 5 4 8 -4 9 -27 4 -27 -5
-31 -4 -19 5 12 9 6 10 -25 5 -31 -4 -37 -3 -25 5 12 9 6 10 -25 5 -31 -4 -37
-3 -25 5 11 9 4 10 -30 6 -33 -5 -41 -4 -30 4 11 8 3 10 -30 5 -35 -5 -42 -4
-30 5 12 9 2 10 -40 6 -40 -5 -51 -4 -40 4 11 8 -1 9 -45 5 -44 -4 -55 -2 -40
5 15 7 4 9 -40 5 -45 -5 -56 -3 -45 5 11 9 1 10 -42 7 -31 -2 -55 0 -52 4 2 4
0 9 -6 11 -6 2 -1 9 11 16 17 11 20 11 13 0 -8 -12 1 -7 89 50 34 23 53 42 25
26 -10 -5 -10 -4 -2 5 8 8 53 12 144 12 91 0 129 4 119 10 -9 7 3 8 41 5 41
-4 50 -3 35 4 -15 8 -10 9 23 5 28 -4 41 -2 37 5 -4 6 6 8 27 4 26 -4 30 -3
18 6 -12 9 -8 10 19 5 25 -5 32 -4 26 5 -6 9 1 10 26 5 27 -5 31 -4 19 5 -12
9 -8 10 18 6 22 -4 31 -2 26 5 -4 8 4 9 27 4 26 -5 31 -4 19 5 -12 9 -7 10 19
5 23 -5 31 -4 27 4 -5 7 4 9 26 5 26 -5 30 -3 18 6 -12 9 -10 11 11 6 19 -4
31 0 45 17 l19 22 -22 -19 c-13 -11 -23 -16 -23 -13 0 4 19 20 42 37 27 20 48
28 61 24 14 -4 17 -3 12 6 -5 9 -1 10 15 5 12 -4 20 -3 17 1 -3 5 44 9 103 9
60 0 106 -4 103 -9 -4 -5 11 -6 33 -2 30 5 36 4 24 -4 -12 -9 -8 -10 18 -6 23
4 31 2 26 -6 -5 -8 1 -9 20 -4 20 5 26 4 20 -5 -5 -9 1 -10 20 -5 19 5 26 3
21 -4 -4 -7 3 -9 22 -5 22 5 25 4 13 -5 -12 -9 -9 -10 13 -5 21 4 27 3 21 -6
-5 -9 1 -10 20 -5 20 5 26 4 20 -5 -5 -9 -1 -10 14 -7 12 4 22 2 22 -4 0 -5
10 -6 21 -3 16 5 19 4 14 -6 -6 -9 -2 -11 13 -7 12 4 22 2 22 -4 0 -5 10 -6
21 -3 16 5 19 4 14 -6 -6 -9 -2 -11 13 -7 12 4 22 2 22 -4 0 -5 10 -6 21 -3
16 5 19 4 14 -5 -6 -10 -1 -11 19 -6 19 5 26 3 21 -4 -4 -7 3 -9 22 -5 22 5
25 4 13 -5 -12 -9 -9 -10 13 -5 19 4 26 2 22 -5 -4 -7 3 -9 22 -5 22 5 25 4
13 -5 -12 -9 -10 -10 13 -6 16 4 27 2 27 -4 0 -6 11 -8 28 -4 22 4 24 3 12 -6
-12 -9 -9 -10 13 -5 19 4 26 2 22 -5 -4 -7 3 -9 22 -5 22 5 25 4 13 -5 -12 -9
-8 -11 18 -6 21 4 31 2 27 -5 -4 -6 3 -7 21 -3 21 5 25 4 19 -6 -6 -10 -2 -11
19 -6 20 5 26 3 21 -5 -5 -8 2 -9 26 -4 27 5 31 4 19 -5 -12 -9 -8 -10 18 -6
22 4 31 2 26 -5 -4 -8 4 -9 27 -4 26 5 31 4 19 -5 -12 -9 -10 -10 10 -8 29 4
37 43 8 43 -10 0 -25 9 -35 20 -17 19 -17 19 2 5 19 -14 19 -13 0 5 -67 62
-201 170 -210 168 -5 -1 -68 54 -140 124 l-130 125 135 -122 c78 -70 99 -87
51 -40 -166 161 -458 413 -396 340 14 -16 4 -11 -32 14 -29 21 -53 40 -53 43
0 2 15 -6 33 -18 17 -13 27 -17 20 -9 -15 20 -78 56 -68 40 6 -9 3 -10 -14 -1
-11 7 -21 14 -21 17 0 3 5 2 10 -1 6 -3 10 -4 10 -1 0 3 -10 10 -21 17 -16 8
-20 8 -14 -1 4 -7 -6 -5 -24 4 -17 9 -31 19 -31 22 0 3 5 2 10 -1 6 -3 10 -4
10 -1 0 9 -82 48 -88 42 -3 -3 1 -6 8 -6 7 0 11 -2 8 -5 -9 -9 -58 17 -51 28
3 5 -3 6 -17 2 -14 -5 -20 -3 -16 3 8 14 -86 45 -109 36 -13 -5 -16 -4 -10 5
6 10 0 12 -26 6 -26 -5 -31 -4 -19 5 12 9 7 10 -19 5 -25 -5 -32 -4 -26 5 6 9
-3 11 -36 6 -33 -4 -39 -3 -24 4 15 7 4 9 -39 4 -37 -4 -56 -2 -52 4 4 6 -49
10 -146 10 -106 1 -148 -2 -138 -9 11 -7 -5 -8 -50 -5 -47 4 -60 3 -45 -4 15
-8 6 -9 -33 -5 -37 4 -52 3 -47 -5 4 -7 -7 -9 -37 -5 -33 4 -39 3 -23 -5 16
-8 10 -9 -23 -5 -31 4 -41 2 -36 -6 4 -8 -3 -9 -27 -4 -27 5 -31 4 -19 -5 12
-9 6 -10 -23 -5 -26 4 -37 3 -32 -4 4 -7 -5 -9 -27 -5 -26 5 -30 3 -18 -6 12
-9 9 -10 -13 -5 -19 4 -26 2 -22 -4 4 -7 -6 -9 -27 -5 -26 5 -30 3 -18 -6 12
-9 9 -10 -13 -5 -19 4 -26 2 -22 -5 5 -7 -2 -9 -21 -4 -19 5 -25 4 -20 -5 6
-9 0 -10 -20 -5 -20 5 -25 4 -19 -6 5 -9 2 -10 -15 -5 -16 5 -20 4 -15 -4 5
-8 -1 -10 -21 -5 -18 5 -25 3 -20 -4 4 -6 -2 -8 -16 -4 -15 4 -19 2 -13 -7 6
-10 2 -11 -15 -6 -16 5 -20 4 -15 -5 5 -9 2 -10 -12 -6 -24 8 -55 -2 -47 -15
3 -6 -6 -7 -23 -4 -23 5 -25 4 -13 -5 12 -10 11 -11 -8 -7 -29 7 -84 -12 -76
-25 4 -6 -2 -8 -16 -3 -16 5 -20 4 -15 -5 5 -9 1 -10 -15 -5 -16 5 -20 4 -15
-5 5 -9 1 -10 -15 -5 -16 5 -20 4 -15 -5 5 -9 1 -10 -15 -5 -14 4 -20 3 -16
-3 6 -10 -23 -26 -32 -17 -3 3 1 5 8 5 7 0 11 2 8 5 -9 9 -38 -7 -32 -17 4 -6
-2 -7 -16 -3 -17 5 -21 4 -15 -6 6 -9 3 -11 -8 -6 -22 8 -49 -2 -40 -16 4 -6
0 -8 -11 -4 -9 4 -34 0 -56 -9 l-39 -16 82 -71 c111 -97 178 -149 152 -117
-18 21 -16 21 18 -4 20 -16 37 -31 37 -33 0 -3 -8 1 -17 8 -16 13 -17 12 -5
-3 8 -9 19 -15 25 -12 7 2 26 -8 42 -22 l30 -26 -32 22 c-18 12 -33 19 -33 16
0 -6 97 -73 164 -111 27 -16 46 -24 42 -17 -6 9 -2 10 18 1 14 -7 23 -15 21
-19 -5 -8 85 -53 93 -45 3 3 -1 5 -8 5 -7 0 -11 2 -8 5 9 9 38 -7 32 -17 -4
-6 2 -7 16 -3 14 4 20 3 16 -3 -8 -13 17 -22 46 -15 16 3 19 2 10 -5 -8 -5
-14 -13 -15 -18 -1 -5 -13 -8 -25 -6 -15 2 -21 -1 -17 -8 5 -7 -2 -9 -22 -5
-22 5 -25 4 -13 -5 12 -9 8 -10 -19 -5 -23 5 -31 4 -27 -4 5 -7 -4 -9 -26 -5
-26 5 -30 3 -18 -6 12 -9 9 -10 -13 -5 -20 4 -27 2 -22 -6 5 -8 -2 -9 -26 -4
-27 5 -31 4 -19 -5 12 -9 6 -10 -23 -5 -26 4 -37 3 -32 -4 4 -7 -5 -9 -27 -5
-26 4 -30 3 -18 -6 12 -8 6 -9 -25 -5 -30 5 -36 4 -25 -4 11 -9 4 -10 -30 -6
-35 4 -40 3 -25 -5 17 -9 16 -10 -10 -6 -16 2 -55 0 -85 -5 -30 -4 -143 -16
-250 -24 -107 -9 -198 -19 -202 -21 -4 -3 -8 0 -8 6 0 6 -11 8 -27 4 -23 -4
-25 -3 -13 6 12 9 9 10 -13 5 -21 -4 -27 -3 -21 6 5 9 -1 10 -20 5 -20 -5 -26
-3 -21 5 5 8 1 9 -15 4 -16 -5 -20 -4 -15 4 5 8 -2 10 -22 6 -22 -5 -25 -4
-13 5 12 9 9 10 -13 5 -20 -4 -27 -2 -22 6 5 8 1 9 -15 4 -16 -5 -20 -4 -15 5
5 9 1 10 -15 5 -16 -5 -20 -4 -15 5 5 9 1 10 -15 5 -16 -5 -20 -4 -15 5 5 9 1
10 -15 5 -15 -5 -20 -3 -16 3 7 12 -29 26 -44 17 -5 -3 -10 -2 -10 3 0 14 -57
32 -77 25 -10 -4 -14 -2 -10 4 9 14 -18 24 -40 16 -10 -4 -14 -2 -10 4 9 14
-18 24 -40 16 -11 -4 -14 -3 -9 5 4 7 1 13 -6 13 -7 1 -20 3 -28 4 -8 1 -21 3
-28 4 -7 0 -11 5 -8 10 6 10 -42 34 -54 26 -11 -7 -41 5 -35 14 5 9 -65 44
-73 36 -3 -3 1 -5 8 -5 7 0 11 -2 8 -5 -7 -8 -58 16 -53 24 2 4 -84 51 -191
104 -108 54 -193 93 -189 87 4 -6 -3 -6 -19 1 -14 7 -23 16 -20 20 3 5 -3 6
-12 2 -12 -4 -15 -3 -10 5 5 8 1 10 -10 5 -13 -5 -15 -3 -9 7 5 8 4 11 -3 6
-13 -8 -103 34 -96 46 3 4 -3 5 -12 1 -12 -4 -15 -3 -10 5 5 8 1 10 -10 5 -12
-4 -15 -3 -10 5 5 8 1 10 -10 5 -12 -4 -15 -3 -10 5 5 8 1 10 -10 5 -12 -4
-15 -3 -10 5 5 8 1 10 -10 5 -12 -4 -15 -3 -10 5 5 8 1 10 -10 5 -13 -5 -15
-3 -9 7 5 9 4 11 -3 6 -7 -4 -20 -2 -29 3 -10 6 -13 11 -8 11 12 1 -76 49 -90
49 -5 1 -3 -4 5 -9 8 -5 11 -10 5 -9 -14 0 -62 28 -50 29 6 0 3 5 -5 10 -8 5
-23 7 -34 4 -11 -4 -16 -2 -13 3 4 6 -5 15 -19 22 -30 13 -45 14 -24 1 8 -5
11 -10 5 -10 -13 0 -43 20 -30 20 13 0 -17 20 -30 20 -5 0 -3 -5 5 -11 12 -9
12 -10 -3 -5 -10 3 -21 6 -23 6 -3 0 -3 4 0 9 8 12 -111 52 -131 44 -12 -5
-14 -3 -8 6 6 10 2 11 -15 6 -16 -5 -20 -4 -15 5 5 9 1 10 -15 5 -17 -5 -20
-4 -15 5 6 10 1 11 -19 6 -20 -5 -26 -3 -21 5 5 8 1 9 -15 4 -17 -5 -20 -4
-15 5 6 10 1 11 -19 6 -19 -5 -26 -3 -21 4 5 7 -2 9 -21 4 -21 -5 -25 -4 -19
6 6 10 2 11 -19 6 -19 -5 -26 -3 -21 4 5 8 -5 9 -32 5 -29 -5 -35 -4 -23 5 12
9 8 10 -19 5 -25 -5 -32 -4 -26 5 6 9 -3 11 -36 6 -33 -4 -39 -3 -24 4 15 8 9
9 -28 5 -32 -3 -46 -1 -42 6 5 7 -14 9 -57 5 -41 -3 -52 -2 -33 3 17 4 -70 7
-200 6 -226 -1 -228 -1 -140 12 50 7 125 14 168 15 46 2 70 6 60 10 -10 4 6 5
36 2 38 -5 52 -3 47 5 -5 8 9 10 51 6 43 -4 53 -3 38 5 -15 7 -2 8 44 4 45 -4
62 -3 57 5 -5 8 12 9 56 6 46 -3 56 -2 38 5 -17 6 3 8 65 4 50 -3 85 -2 78 3
-6 4 125 8 292 8 167 0 298 -4 292 -8 -7 -4 20 -6 58 -3 51 4 63 3 45 -4 -19
-8 -13 -9 28 -5 36 3 51 1 46 -7 -4 -7 7 -8 37 -4 34 6 41 5 29 -4 -12 -9 -8
-10 18 -6 22 4 31 2 27 -5 -5 -7 6 -8 32 -4 30 5 35 4 23 -5 -12 -9 -9 -10 13
-5 21 4 27 3 21 -6 -5 -9 1 -10 20 -5 20 5 26 4 20 -5 -5 -9 1 -10 20 -5 18 4
25 3 21 -4 -3 -6 3 -10 15 -10 12 0 18 4 15 10 -4 6 12 8 42 5 37 -4 43 -3 28
5 -15 8 -8 9 29 4 33 -4 46 -2 42 5 -5 7 8 9 41 6 37 -4 43 -3 28 5 -15 8 -8
9 29 4 34 -4 46 -2 41 5 -4 8 7 10 37 6 33 -4 38 -3 23 5 -15 7 -9 8 24 4 30
-4 41 -3 37 5 -5 7 3 9 26 5 26 -5 30 -3 18 6 -12 9 -7 10 23 5 26 -4 37 -3
32 4 -4 7 5 9 27 5 26 -4 30 -3 18 6 -12 9 -8 10 19 5 23 -5 31 -4 27 4 -5 7
4 9 26 5 26 -5 30 -3 18 6 -12 9 -9 10 13 5 19 -4 26 -2 22 5 -4 7 3 9 22 5
22 -5 25 -4 13 5 -12 9 -9 10 13 5 19 -4 26 -2 22 5 -4 7 3 9 22 5 22 -5 25
-4 13 4 -12 10 -10 11 10 10 14 -1 34 -1 45 0 17 1 18 3 5 12 -12 9 -10 10 8
6 29 -7 54 2 46 15 -4 6 2 7 16 3 14 -4 20 -3 16 3 -6 10 23 26 32 17 3 -3 -1
-5 -8 -5 -7 0 -11 -2 -8 -5 8 -8 39 6 33 15 -6 10 24 22 35 15 11 -7 80 26 75
36 -3 4 2 10 11 13 9 3 12 2 8 -5 -3 -6 12 -1 35 10 23 12 41 24 41 27 0 3 -4
2 -10 -1 -5 -3 -10 -4 -10 -1 0 3 10 10 21 17 16 8 20 8 14 -1 -6 -9 -2 -9 14
-1 11 7 21 14 21 17 0 3 -4 2 -10 -1 -5 -3 -10 -4 -10 -1 0 3 10 10 21 17 16
8 20 8 14 -1 -26 -42 178 113 287 218 77 74 173 183 228 257 14 19 14 19 -5 5
-17 -13 -16 -11 4 18 12 17 25 32 28 32 3 0 0 -7 -7 -15 -7 -8 -10 -15 -7 -15
2 0 24 26 47 57 27 35 37 54 26 50 -10 -4 -25 -7 -34 -8 -14 0 -13 -2 3 -10
15 -7 11 -8 -18 -5 -21 3 -35 1 -32 -4 4 -6 -8 -7 -27 -4 -26 5 -30 3 -18 -6
12 -9 9 -10 -13 -5 -20 4 -27 2 -22 -6 5 -8 -2 -9 -26 -4 -26 5 -31 4 -19 -5
12 -9 7 -10 -19 -5 -24 5 -31 4 -26 -4 5 -8 -2 -10 -22 -6 -22 5 -25 4 -13 -5
12 -9 8 -10 -19 -5 -24 5 -31 4 -26 -4 5 -8 -1 -10 -21 -5 -20 5 -25 4 -19 -6
6 -9 0 -10 -25 -5 -22 5 -30 4 -26 -4 5 -7 -4 -9 -26 -5 -26 4 -30 3 -18 -6
12 -9 8 -10 -19 -5 -23 5 -31 4 -27 -4 5 -7 -4 -9 -26 -5 -26 5 -30 3 -18 -6
12 -9 7 -10 -23 -5 -25 4 -37 3 -33 -4 4 -6 -8 -8 -31 -5 -30 3 -34 2 -18 -6
15 -8 9 -9 -25 -4 -34 4 -41 2 -30 -6 11 -8 4 -9 -30 -5 -34 4 -40 3 -25 -5
15 -7 9 -8 -24 -4 -31 4 -42 3 -37 -5 5 -8 -5 -10 -36 -5 -33 4 -40 3 -28 -6
12 -9 5 -10 -29 -4 -32 4 -42 3 -36 -5 5 -9 -8 -10 -47 -6 -40 4 -48 3 -33 -5
15 -7 5 -9 -39 -4 -40 4 -56 2 -52 -5 5 -8 -17 -9 -71 -6 -43 2 -65 1 -49 -3
17 -4 -88 -7 -233 -7 -144 0 -252 3 -239 7 13 4 -2 6 -35 4 -38 -3 -55 -1 -51
6 4 7 -8 8 -37 4 -34 -6 -41 -5 -29 4 12 9 6 10 -23 5 -29 -5 -37 -3 -31 6 5
9 0 10 -20 5 -20 -5 -26 -4 -20 5 5 9 -1 10 -20 5 -20 -5 -26 -3 -21 5 5 8 1
9 -15 4 -17 -5 -21 -4 -15 6 6 9 2 11 -13 7 -14 -4 -20 -2 -16 4 4 6 -2 8 -16
3 -16 -5 -20 -4 -15 5 5 9 1 10 -15 5 -15 -5 -20 -4 -16 4 4 6 1 12 -6 12 -7
1 -20 3 -28 4 -8 1 -21 3 -28 4 -7 0 -10 5 -7 11 3 5 0 7 -7 5 -8 -3 -22 2
-33 11 -11 8 -13 13 -5 9 8 -4 6 1 -5 9 -11 9 -25 14 -32 12 -7 -3 -15 0 -19
6 -4 7 -3 8 4 4 25 -15 10 3 -16 20 -26 17 -27 17 -12 -1 32 -40 -45 23 -105
87 l-60 63 75 -70 74 -70 -74 80 c-90 97 -98 105 -80 81 10 -13 10 -17 3 -12
-7 4 -18 16 -24 28 -8 16 -8 19 1 13 9 -6 9 -2 1 14 -12 22 -27 30 -16 9 4 -7
-1 -4 -9 7 -9 11 -14 25 -11 33 3 8 0 10 -7 6 -8 -5 -9 -2 -5 10 4 9 3 15 -2
12 -5 -3 -12 1 -15 10 -3 8 -2 12 4 9 6 -3 10 -4 10 -1 0 3 -10 10 -21 17 -16
8 -20 8 -14 -1 4 -7 -6 -5 -24 4 -17 9 -31 19 -31 22 0 3 5 2 10 -1 6 -3 10
-4 10 -1 0 3 -18 15 -41 27 -23 11 -38 15 -34 9 6 -9 2 -9 -14 -1 -11 7 -21
14 -21 17 0 3 5 2 10 -1 6 -3 10 -4 10 -1 0 3 -14 13 -31 22 -18 9 -28 11 -24
4 4 -7 -6 -5 -24 4 -17 9 -31 19 -31 22 0 3 5 2 10 -1 6 -3 10 -4 10 -1 0 3
-18 15 -41 27 -23 11 -38 15 -34 9 4 -7 -7 -5 -24 4 -17 9 -31 19 -31 22 0 2
9 0 20 -6 11 -6 20 -8 20 -5 0 6 -216 115 -227 115 -5 0 -1 -5 7 -10 8 -5 11
-10 5 -9 -14 0 -62 28 -50 29 12 1 -56 39 -70 39 -5 1 -3 -4 5 -9 8 -5 11 -10
5 -9 -14 0 -62 28 -50 29 13 0 -16 20 -30 20 -5 0 -3 -5 5 -10 8 -5 11 -10 5
-10 -13 0 -43 20 -30 20 6 0 3 5 -5 10 -8 5 -23 7 -34 4 -11 -4 -16 -2 -12 4
6 10 -23 26 -32 17 -3 -3 1 -5 8 -5 7 0 11 -2 8 -5 -9 -9 -38 7 -32 17 4 6 -2
7 -16 3 -14 -4 -20 -3 -16 3 8 13 -19 23 -41 15 -11 -5 -14 -3 -8 6 6 10 2 11
-15 6 -16 -5 -20 -4 -15 5 5 9 1 10 -15 5 -16 -5 -20 -4 -15 5 5 9 1 10 -15 5
-16 -5 -20 -4 -15 4 5 8 -2 10 -22 6 -22 -5 -25 -4 -13 5 12 9 9 10 -13 5 -20
-4 -27 -2 -22 6 5 8 1 9 -15 4 -16 -5 -20 -4 -15 5 5 9 1 10 -15 5 -17 -5 -20
-4 -15 5 6 10 1 11 -19 6 -20 -5 -26 -4 -20 5 5 9 -1 10 -20 5 -19 -5 -26 -3
-21 4 4 7 -3 9 -22 5 -22 -5 -25 -4 -13 5 12 9 8 11 -18 6 -22 -4 -31 -2 -26
5 4 8 -4 9 -27 4 -26 -5 -31 -4 -19 5 12 9 7 10 -19 5 -24 -5 -32 -4 -26 5 5
8 -4 10 -32 6 -30 -5 -34 -4 -18 4 16 8 13 9 -18 6 -25 -3 -35 -1 -31 6 4 7
-8 8 -37 4 -33 -4 -39 -3 -24 4 15 8 9 9 -28 5 -32 -3 -46 -1 -42 6 5 6 -11 8
-47 4 -40 -4 -48 -3 -33 5 15 8 5 9 -38 5 -41 -4 -56 -2 -52 6 5 8 -20 9 -86
5 -52 -2 -78 -2 -59 3 29 6 17 8 -60 14 -52 4 -105 8 -117 8 -13 1 -20 6 -16
12 4 6 -3 8 -21 3 -20 -5 -26 -4 -20 5 5 9 -1 10 -20 5 -19 -5 -26 -3 -21 4 4
7 -3 9 -22 5 -22 -5 -25 -4 -13 5 12 9 8 11 -18 6 -22 -4 -31 -2 -26 5 4 8 -4
9 -27 4 -27 -5 -31 -4 -19 5 12 9 8 10 -18 6 -22 -4 -31 -2 -27 5 5 7 -6 8
-32 4 -30 -5 -35 -4 -23 5 12 9 7 10 -23 5 -27 -4 -37 -3 -32 5 4 7 -7 9 -37
5 -33 -4 -39 -3 -23 5 15 8 7 9 -33 5 -36 -4 -52 -2 -47 4 4 7 -15 9 -57 6
-46 -3 -56 -2 -38 5 17 6 -6 8 -75 5 -66 -3 -93 -2 -80 4 14 7 -22 9 -110 9
-87 0 -122 -3 -105 -9 16 -5 -11 -7 -75 -4 -69 3 -92 1 -75 -5 18 -7 7 -8 -40
-5 -47 4 -61 3 -50 -5 11 -8 0 -9 -40 -5 -41 4 -50 3 -35 -5 15 -7 9 -8 -24
-4 -29 4 -41 3 -37 -4 4 -7 -6 -9 -31 -6 -31 3 -34 2 -18 -6 16 -8 12 -9 -18
-4 -26 3 -37 2 -32 -5 4 -7 -5 -9 -27 -5 -26 4 -30 3 -18 -6 12 -9 8 -10 -19
-5 -24 5 -31 4 -26 -4 5 -8 -2 -10 -22 -6 -22 5 -25 4 -13 -5 12 -9 9 -10 -13
-5 -19 4 -26 2 -22 -5 4 -7 -3 -9 -22 -5 -23 5 -25 4 -13 -5 12 -10 11 -11 -8
-7 -29 7 -54 -2 -46 -15 4 -6 -2 -7 -16 -3 -12 4 -20 3 -17 -1 3 -5 -7 -9 -23
-9 -18 0 -26 4 -23 12 3 7 10 10 16 6 6 -4 8 0 4 11 -4 9 -3 15 1 12 5 -3 16
11 26 30 9 20 11 32 5 28 -8 -5 -8 -1 0 15 7 11 14 21 17 21 3 0 2 -4 -1 -10
-3 -5 -4 -10 -1 -10 3 0 10 10 17 21 8 16 8 20 -1 14 -9 -6 -9 -2 -1 14 12 22
27 30 16 9 -4 -7 1 -4 9 7 9 11 14 25 12 32 -3 7 0 15 6 19 7 5 8 2 3 -7 -16
-28 12 6 49 61 36 52 36 53 6 20 l-32 -35 33 47 c18 27 42 56 53 65 l21 18
-20 -25 c-11 -14 4 -1 32 30 68 72 64 106 -10 78z m53 -21 c0 -2 -15 -16 -32
-33 l-33 -29 29 33 c28 30 36 37 36 29z m-1390 -602 c0 -2 -10 -9 -22 -15 -22
-11 -22 -10 -4 4 21 17 26 19 26 11z m-520 -339 c0 -2 -8 -10 -17 -17 -16 -13
-17 -12 -4 4 13 16 21 21 21 13z m-80 -64 c-24 -20 -87 -73 -140 -116 -52 -44
-88 -71 -80 -61 17 21 252 215 260 214 3 0 -15 -17 -40 -37z m-240 -195 c0 -1
-28 -29 -62 -62 l-63 -60 60 63 c55 58 65 67 65 59z m-130 -120 c0 -2 -19 -21
-42 -42 l-43 -40 40 43 c36 39 45 47 45 39z m-80 -90 c0 -1 -33 -34 -72 -72
l-73 -70 70 73 c64 67 75 77 75 69z m8590 -21 c0 -2 -8 -10 -17 -17 -16 -13
-17 -12 -4 4 13 16 21 21 21 13z m-80 -109 c0 -2 -10 -12 -22 -23 l-23 -19 19
23 c18 21 26 27 26 19z m-8701 -77 c-29 -33 -54 -60 -57 -60 -5 0 16 25 72 88
51 55 40 35 -15 -28z m8613 -27 c-28 -32 -81 -87 -118 -123 -37 -36 -16 -10
47 57 63 67 116 123 117 123 2 0 -19 -26 -46 -57z m-1294 0 c-10 -2 -26 -2
-35 0 -10 3 -2 5 17 5 19 0 27 -2 18 -5z m-7378 -46 c0 -2 -10 -12 -22 -23
l-23 -19 19 23 c18 21 26 27 26 19z m8470 -152 c-7 -9 -32 -30 -54 -47 -35
-26 -34 -24 9 15 52 48 67 58 45 32z m-100 -79 c0 -2 -8 -10 -17 -17 -16 -13
-17 -12 -4 4 13 16 21 21 21 13z m-8690 -226 c-6 -11 -13 -20 -16 -20 -2 0 0
9 6 20 6 11 13 20 16 20 2 0 0 -9 -6 -20z m6658 -117 c-49 -2 -127 -2 -175 0
-49 1 -9 3 87 3 96 0 136 -2 88 -3z m4407 -403 c10 -11 16 -20 13 -20 -3 0
-13 9 -23 20 -10 11 -16 20 -13 20 3 0 13 -9 23 -20z m140 -121 c11 -13 -10 3
-47 36 -38 32 -68 60 -68 63 0 6 93 -73 115 -99z m-2405 46 c13 -14 21 -25 18
-25 -2 0 -15 11 -28 25 -13 14 -21 25 -18 25 2 0 15 -11 28 -25z m66 -57 l29
-33 -32 29 c-31 28 -38 36 -30 36 2 0 16 -15 33 -32z m59 -48 c10 -11 16 -20
13 -20 -3 0 -13 9 -23 20 -10 11 -16 20 -13 20 3 0 13 -9 23 -20z m1653 -157
c-16 -2 -40 -2 -55 0 -16 2 -3 4 27 4 30 0 43 -2 28 -4z m-1358 -49 c0 -2 -9
0 -20 6 -11 6 -20 13 -20 16 0 2 9 0 20 -6 11 -6 20 -13 20 -16z m2320 -39
c19 -19 32 -35 29 -35 -3 0 -20 16 -39 35 -19 19 -32 35 -29 35 3 0 20 -16 39
-35z m70 -60 c13 -14 21 -25 18 -25 -2 0 -15 11 -28 25 -13 14 -21 25 -18 25
2 0 15 -11 28 -25z m55 -45 c10 -11 16 -20 13 -20 -3 0 -13 9 -23 20 -10 11
-16 20 -13 20 3 0 13 -9 23 -20z m-175 -906 c0 -3 -13 4 -30 16 -16 12 -30 24
-30 26 0 3 14 -4 30 -16 17 -12 30 -24 30 -26z m70 -50 c0 -3 -13 4 -30 16
-16 12 -30 24 -30 26 0 3 14 -4 30 -16 17 -12 30 -24 30 -26z m31 -21 c13 -16
12 -17 -3 -4 -10 7 -18 15 -18 17 0 8 8 3 21 -13z m40 -30 c13 -16 12 -17 -3
-4 -10 7 -18 15 -18 17 0 8 8 3 21 -13z m174 -133 c10 -11 16 -20 13 -20 -3 0
-13 9 -23 20 -10 11 -16 20 -13 20 3 0 13 -9 23 -20z m-1615 -504 c0 -2 -7 -7
-16 -10 -8 -3 -12 -2 -9 4 6 10 25 14 25 6z m-340 -210 c0 -2 -8 -10 -17 -17
-16 -13 -17 -12 -4 4 13 16 21 21 21 13z m-40 -29 c0 -2 -10 -12 -22 -23 l-23
-19 19 23 c18 21 26 27 26 19z m-50 -40 c0 -2 -10 -12 -22 -23 l-23 -19 19 23
c18 21 26 27 26 19z m-50 -40 c0 -2 -17 -19 -37 -38 l-38 -34 34 38 c33 34 41
42 41 34z m-80 -70 c0 -1 -24 -25 -52 -52 l-53 -50 50 53 c46 48 55 57 55 49z
m-160 -153 c-30 -30 -91 -88 -135 -127 -44 -39 -21 -14 50 56 134 130 181 170
85 71z m-2380 -1059 c30 -30 52 -55 49 -55 -2 0 -29 25 -59 55 -30 30 -52 55
-49 55 2 0 29 -25 59 -55z m961 18 c13 -16 12 -17 -3 -4 -10 7 -18 15 -18 17
0 8 8 3 21 -13z m-701 -261 c0 -7 -133 114 -170 154 -19 21 11 -5 68 -56 56
-52 102 -96 102 -98z m40 -27 c13 -14 21 -25 18 -25 -2 0 -15 11 -28 25 -13
14 -21 25 -18 25 2 0 15 -11 28 -25z m55 -45 c10 -11 16 -20 13 -20 -3 0 -13
9 -23 20 -10 11 -16 20 -13 20 3 0 13 -9 23 -20z m46 -37 c13 -16 12 -17 -3
-4 -10 7 -18 15 -18 17 0 8 8 3 21 -13z m264 -173 c3 -6 -1 -7 -9 -4 -18 7
-21 14 -7 14 6 0 13 -4 16 -10z m-155 -64 c0 -2 -8 -10 -17 -17 -16 -13 -17
-12 -4 4 13 16 21 21 21 13z m-7990 -246 c6 -11 8 -20 6 -20 -3 0 -10 9 -16
20 -6 11 -8 20 -6 20 3 0 10 -9 16 -20z m2114 -215 c-4 -8 -8 -15 -10 -15 -2
0 -4 7 -4 15 0 8 4 15 10 15 5 0 7 -7 4 -15z m-1889 -125 c10 -11 16 -20 13
-20 -3 0 -13 9 -23 20 -10 11 -16 20 -13 20 3 0 13 -9 23 -20z m40 -50 c10
-11 16 -20 13 -20 -3 0 -13 9 -23 20 -10 11 -16 20 -13 20 3 0 13 -9 23 -20z
m263 -282 c48 -46 74 -72 57 -58 -57 47 -206 195 -257 255 -28 33 -14 21 31
-27 45 -48 121 -125 169 -170z m1812 7 c13 -14 21 -25 18 -25 -2 0 -15 11 -28
25 -13 14 -21 25 -18 25 2 0 15 -11 28 -25z m2901 -22 c13 -16 12 -17 -3 -4
-10 7 -18 15 -18 17 0 8 8 3 21 -13z m-2821 -68 c30 -30 52 -55 49 -55 -2 0
-29 25 -59 55 -30 30 -52 55 -49 55 2 0 29 -25 59 -55z m2865 35 c10 -11 16
-20 13 -20 -3 0 -13 9 -23 20 -10 11 -16 20 -13 20 3 0 13 -9 23 -20z m315
-290 l186 -185 -181 175 c-99 97 -207 200 -240 229 l-60 53 55 -43 c30 -24
138 -127 240 -229z m-4945 230 c10 -11 16 -20 13 -20 -3 0 -13 9 -23 20 -10
11 -16 20 -13 20 3 0 13 -9 23 -20z m1925 -117 c0 -7 -75 54 -91 74 -8 10 10
-2 39 -26 28 -24 52 -46 52 -48z m486 -304 c3 -6 -5 -3 -20 6 -14 10 -26 19
-26 22 0 7 39 -17 46 -28z m2805 -90 c28 -33 49 -59 46 -59 -2 0 -33 33 -68
73 -35 39 -56 66 -46 58 10 -8 40 -40 68 -72z m174 -210 c27 -35 45 -60 39
-57 -5 4 -32 35 -59 69 -27 35 -45 60 -39 57 5 -4 32 -35 59 -69z m70 -89 c10
-11 16 -20 13 -20 -3 0 -13 9 -23 20 -10 11 -16 20 -13 20 3 0 13 -9 23 -20z"/>
<path d="M2665 8430 c-3 -6 1 -7 9 -4 18 7 21 14 7 14 -6 0 -13 -4 -16 -10z"/>
<path d="M705 6559 c-4 -6 -5 -12 -2 -15 2 -3 7 2 10 11 7 17 1 20 -8 4z"/>
<path d="M664 6479 c-14 -28 -24 -53 -22 -55 2 -2 16 21 31 51 15 30 25 55 22
55 -3 0 -16 -23 -31 -51z"/>
<path d="M7910 6136 c0 -2 7 -7 16 -10 8 -3 12 -2 9 4 -6 10 -25 14 -25 6z"/>
<path d="M11204 5844 c-18 -14 -18 -15 4 -4 12 6 22 13 22 15 0 8 -5 6 -26
-11z"/>
<path d="M12170 4907 c0 -3 12 -12 26 -22 15 -9 23 -12 20 -6 -7 11 -46 35
-46 28z"/>
<path d="M9950 3209 c-22 -18 -22 -19 -3 -10 12 6 25 16 28 21 9 15 3 12 -25
-11z"/>
<path d="M8388 2653 c7 -3 16 -2 19 1 4 3 -2 6 -13 5 -11 0 -14 -3 -6 -6z"/>
<path d="M8499 1913 c-13 -16 -12 -17 4 -4 16 13 21 21 13 21 -2 0 -10 -8 -17
-17z"/>
<path d="M9088 1763 c12 -2 32 -2 45 0 12 2 2 4 -23 4 -25 0 -35 -2 -22 -4z"/>
<path d="M2778 1383 c23 -2 61 -2 85 0 23 2 4 4 -43 4 -47 0 -66 -2 -42 -4z"/>
<path d="M4430 1099 c10 -6 -8 -8 -55 -4 -51 4 -65 3 -50 -5 15 -7 6 -8 -34
-4 -39 5 -52 3 -47 -5 5 -8 -5 -10 -36 -6 -33 4 -38 3 -23 -5 15 -7 9 -8 -24
-4 -29 4 -41 3 -37 -4 4 -7 -6 -9 -31 -6 -30 5 -35 3 -23 -6 12 -9 8 -10 -19
-5 -23 5 -31 4 -27 -4 5 -7 -4 -9 -26 -5 -26 4 -30 3 -18 -6 12 -9 8 -10 -19
-5 -24 5 -31 4 -26 -4 5 -8 -1 -10 -21 -5 -19 5 -25 4 -20 -5 6 -9 0 -10 -20
-5 -19 5 -25 4 -20 -5 6 -9 0 -10 -20 -5 -19 5 -25 4 -20 -5 6 -9 0 -10 -20
-5 -21 5 -25 4 -19 -6 6 -10 4 -12 -9 -7 -23 9 -68 -2 -60 -14 3 -6 -6 -7 -23
-4 -22 5 -25 4 -13 -5 12 -9 9 -10 -13 -5 -20 4 -27 2 -22 -6 5 -8 1 -9 -15
-4 -16 5 -20 4 -15 -5 5 -9 1 -10 -15 -5 -16 5 -20 4 -15 -4 5 -8 -2 -10 -22
-6 -22 5 -25 4 -13 -5 12 -10 11 -11 -10 -7 -14 2 -35 2 -48 -2 -20 -5 -11
-18 100 -127 135 -133 182 -176 243 -218 l40 -28 -35 29 c-19 15 -50 43 -70
61 -20 19 -10 13 24 -13 32 -25 76 -58 97 -72 44 -29 54 -45 12 -18 -18 11
-22 12 -13 3 22 -22 95 -64 86 -50 -6 9 -1 10 18 1 14 -7 23 -16 20 -20 -3 -5
3 -6 12 -2 13 5 15 3 9 -7 -5 -8 -4 -11 3 -7 13 9 44 -2 37 -13 -6 -9 25 -23
33 -15 3 3 -1 5 -8 5 -7 0 -11 2 -8 5 9 9 38 -7 32 -17 -4 -6 2 -7 16 -3 16 5
20 4 15 -4 -5 -8 1 -10 21 -5 19 5 25 4 20 -5 -6 -9 0 -10 21 -6 22 5 25 4 13
-5 -12 -9 -6 -10 28 -6 29 4 41 3 37 -4 -4 -7 31 -10 102 -10 77 0 104 3 93
11 -11 7 2 8 45 4 43 -4 54 -2 40 5 -15 7 -7 8 29 3 36 -4 47 -3 42 6 -6 8 4
10 36 5 33 -4 40 -3 28 6 -12 9 -5 10 29 4 33 -5 42 -3 36 6 -5 9 0 11 21 6
21 -4 36 0 54 15 14 11 19 17 11 13 -9 -5 -12 -3 -7 5 4 6 11 9 16 6 12 -8 41
6 34 16 -3 6 6 7 23 4 19 -5 24 -4 15 3 -9 6 11 9 59 10 50 0 68 -3 58 -10
-10 -7 -5 -8 19 -4 18 3 32 1 32 -4 0 -6 12 -8 28 -4 22 4 24 3 12 -6 -12 -9
-9 -10 13 -5 17 3 26 2 23 -4 -8 -12 50 -32 71 -24 11 5 14 3 8 -6 -6 -10 -2
-11 15 -6 14 4 20 3 16 -3 -6 -10 23 -26 32 -17 3 3 -1 5 -8 5 -7 0 -11 2 -8
5 9 9 38 -7 32 -17 -4 -6 2 -7 16 -3 14 4 20 3 16 -3 -8 -13 19 -23 41 -15 10
4 14 2 10 -4 -9 -14 18 -24 40 -16 10 4 14 2 10 -4 -9 -14 18 -24 40 -16 12 5
14 3 8 -7 -6 -10 -4 -12 8 -7 22 8 49 -2 41 -15 -4 -6 2 -7 16 -3 14 4 20 3
16 -3 -6 -10 23 -26 32 -17 3 3 -1 5 -8 5 -7 0 -11 2 -8 5 9 9 38 -7 32 -17
-4 -6 2 -7 16 -3 14 4 20 3 16 -3 -8 -13 19 -23 41 -15 11 5 14 3 8 -6 -6 -10
-2 -11 15 -6 14 4 20 3 16 -3 -8 -13 19 -23 41 -15 11 5 14 3 8 -6 -6 -10 -2
-11 15 -6 16 5 20 4 15 -5 -5 -9 -1 -10 15 -5 16 5 20 4 15 -5 -5 -9 -1 -10
15 -5 16 5 20 4 15 -5 -5 -9 -1 -10 15 -5 16 5 20 4 15 -5 -5 -9 -1 -10 15 -5
16 5 20 4 15 -5 -5 -9 -1 -10 15 -5 16 5 20 4 15 -5 -5 -9 -1 -10 15 -5 14 4
20 3 16 -3 -3 -5 1 -12 9 -16 8 -3 19 2 24 13 8 14 -5 32 -77 102 -48 47 -154
159 -237 249 -231 254 -411 424 -439 414 -6 -2 -22 6 -36 17 -14 11 -18 18
-10 14 8 -4 6 1 -5 10 -29 24 -156 87 -163 81 -3 -3 1 -6 8 -6 7 0 11 -2 8 -5
-8 -8 -39 6 -33 15 7 12 -50 29 -77 23 -19 -4 -20 -3 -8 7 12 9 10 10 -13 5
-19 -4 -26 -2 -22 5 4 7 -3 9 -22 5 -22 -5 -25 -4 -13 5 12 9 6 10 -25 5 -30
-4 -36 -3 -25 5 11 8 2 9 -35 5 -37 -4 -45 -3 -30 5 14 7 3 8 -40 4 -43 -4
-56 -2 -45 5 11 7 -30 10 -140 10 -102 0 -149 -3 -140 -10z m800 -165 c0 -2
-9 0 -20 6 -11 6 -20 13 -20 16 0 2 9 0 20 -6 11 -6 20 -13 20 -16z m-1625
-164 c66 -66 117 -120 115 -120 -3 0 -59 54 -125 120 -66 66 -117 120 -115
120 3 0 59 -54 125 -120z m1761 68 c4 -7 -9 1 -29 16 -20 16 -37 30 -37 33 0
7 58 -36 66 -49z m74 -63 c30 -30 52 -55 49 -55 -2 0 -29 25 -59 55 -30 30
-52 55 -49 55 2 0 29 -25 59 -55z m285 -295 c83 -89 170 -185 193 -213 l44
-52 -49 51 c-147 157 -352 381 -381 418 l-34 41 39 -41 c21 -23 106 -115 188
-204z m290 -300 c21 -22 37 -40 34 -40 -3 0 -23 18 -44 40 -21 22 -37 40 -34
40 3 0 23 -18 44 -40z"/>
</g>
</svg>
